<svg aria-hidden="true" style="position:absolute;width:0;height:0" xmlns="http://www.w3.org/2000/svg" overflow="hidden"><defs><symbol id="icon-ALARM" viewBox="0 0 33 32"><path d="M31.732 9.806A16.237 16.237 0 0 0 23.226 1.3a6.003 6.003 0 0 1 3.747-1.301 6.061 6.061 0 0 1 6.059 6.059 5.995 5.995 0 0 1-1.301 3.747zm-.248 6.71c0 3.974-1.559 7.577-4.088 10.261l2.095 2.095c.268.279.444.661.444 1.084 0 .846-.681 1.528-1.528 1.528-.423 0-.805-.175-1.084-.444l-2.25-2.25a14.947 14.947 0 0 1-17.104.01l-2.23 2.23a1.546 1.546 0 1 1-2.188-2.188l2.075-2.075c-2.519-2.684-4.077-6.276-4.077-10.25 0-8.268 6.699-14.968 14.968-14.968s14.968 6.699 14.968 14.968zM16.516 4.645c-6.555 0-11.871 5.316-11.871 11.871s5.316 11.871 11.871 11.871c6.555 0 11.871-5.316 11.871-11.871S23.071 4.645 16.516 4.645zm6.194 13.42h-6.194a1.546 1.546 0 0 1-1.548-1.548V8.259c0-.857.692-1.548 1.548-1.548s1.548.692 1.548 1.548v6.71h4.645c.857 0 1.548.692 1.548 1.548s-.692 1.548-1.548 1.548zM1.332 10.023A6.139 6.139 0 0 1 0 6.193 6.199 6.199 0 0 1 6.194-.001c1.445 0 2.777.495 3.83 1.332a16.494 16.494 0 0 0-8.692 8.692z"/></symbol><symbol id="icon-BOOK-2" viewBox="0 0 32 32"><path d="M31.06 25.89l-14.47 5.99c-.18.08-.38.12-.59.12s-.41-.04-.59-.12L.94 25.89C.39 25.67 0 25.13 0 24.5v-23C0 .67.67 0 1.5 0c.2 0 .4.04.57.11l.01.01h.01L16 5.88 29.91.12h.01l.01-.01c.17-.07.37-.11.57-.11.83 0 1.5.67 1.5 1.5v23c0 .63-.39 1.17-.94 1.39zM14.5 8.5L3 3.74V23.5l11.5 4.76V8.5zM29 3.74L17.5 8.5v19.76L29 23.5V3.74zm-9.12 6.89l5.5-2.5c.19-.08.4-.13.62-.13.83 0 1.5.67 1.5 1.5 0 .61-.36 1.13-.88 1.37l-5.5 2.5c-.19.08-.4.13-.62.13-.83 0-1.5-.67-1.5-1.5 0-.61.36-1.13.88-1.37zm0 5.5l5.5-2.5c.19-.08.4-.13.62-.13.83 0 1.5.67 1.5 1.5 0 .61-.36 1.13-.88 1.37l-5.5 2.5v-.01c-.19.09-.4.14-.62.14-.83 0-1.5-.67-1.5-1.5 0-.61.36-1.13.88-1.37zm0 5.5l5.5-2.5c.19-.08.4-.13.62-.13.83 0 1.5.67 1.5 1.5 0 .61-.36 1.13-.88 1.37l-5.5 2.5c-.19.08-.4.13-.62.13-.83 0-1.5-.67-1.5-1.5 0-.61.36-1.13.88-1.37zM6 8c.22 0 .43.05.62.13l5.5 2.5c.52.24.88.76.88 1.37 0 .83-.67 1.5-1.5 1.5a1.6 1.6 0 0 1-.62-.13l-5.5-2.5c-.52-.24-.88-.76-.88-1.37C4.5 8.67 5.17 8 6 8zm0 5.5c.22 0 .43.05.62.13l5.5 2.5c.52.24.88.76.88 1.37 0 .83-.67 1.5-1.5 1.5-.22 0-.43-.05-.62-.14v.01l-5.5-2.5c-.52-.24-.88-.76-.88-1.37 0-.83.67-1.5 1.5-1.5zM6 19c.22 0 .43.05.62.13l5.5 2.5c.52.24.88.76.88 1.37 0 .83-.67 1.5-1.5 1.5a1.6 1.6 0 0 1-.62-.13l-5.5-2.5c-.52-.24-.88-.76-.88-1.37 0-.83.67-1.5 1.5-1.5z"/></symbol><symbol id="icon-COMPUTER" viewBox="0 0 37 32"><path d="M34.286 26.286H23.429v2.857l2.286 2.286V32H10.858v-.571l2.286-2.286v-2.857H2.287a1.712 1.712 0 0 1-1.714-1.714V1.715c0-.949.766-1.714 1.714-1.714h32c.949 0 1.714.766 1.714 1.714v22.857c0 .949-.766 1.714-1.714 1.714zm-.572-24H2.857v19.429h30.857V2.286zm-18.857 8c.469 0 .903.194 1.211.503l1.074 1.074 3.36-3.36a1.712 1.712 0 1 1 2.422 2.422l-4.571 4.571c-.309.309-.743.503-1.211.503s-.903-.194-1.211-.503l-2.286-2.286a1.712 1.712 0 0 1 1.211-2.925z"/></symbol><symbol id="icon-facebook" viewBox="0 0 16 32"><path d="M5.022 2.055C3.225 3.889 3.164 7.47 3.016 11.101H.124v4.96h2.929v15.692h6.868V15.999h3.963c.308-1.662.603-2.966 1.034-4.898h-4.96c.049-1.649-.258-3.938.258-4.726.935-1.428 4.677-1.058 4.677-1.058V.246C8.998.246 7.065 0 5.035 2.055z"/></symbol><symbol id="icon-HOME" viewBox="0 0 33 32"><path d="M33.032 17.032c0 .857-.692 1.548-1.548 1.548-.413 0-.774-.165-1.053-.423v.01L16.516 4.252 2.632 18.136a1.52 1.52 0 0 1-1.084.444 1.546 1.546 0 0 1-1.073-2.663L15.401.991a1.56 1.56 0 0 1 1.115-.475h.093c.021 0 .052.01.072.01.382.041.723.217.97.485l6.09 6.09V5.676c0-.857.692-1.548 1.548-1.548s1.548.692 1.548 1.548v4.521l5.781 5.781h-.01c.258.279.423.64.423 1.053zm-3.097 2.581v10.839c0 .857-.692 1.548-1.548 1.548H25.29V19.613h-6.194V32H4.644a1.546 1.546 0 0 1-1.548-1.548V19.613L16.515 6.194l13.419 13.419zm-16 0H7.741v6.194h6.194v-6.194z"/></symbol><symbol id="icon-IMAGE" viewBox="0 0 34 32"><path d="M31.5 32h-29c-.83 0-1.5-.67-1.5-1.5v-29C1 .67 1.67 0 2.5 0h29c.83 0 1.5.67 1.5 1.5v29c0 .83-.67 1.5-1.5 1.5zM30 3H4v26h26V3zM7.5 4.5H13c.83 0 1.5.67 1.5 1.5s-.67 1.5-1.5 1.5H8.5V12c0 .83-.67 1.5-1.5 1.5s-1.5-.67-1.5-1.5V4.5h2zM5.5 20c0-.83.67-1.5 1.5-1.5s1.5.67 1.5 1.5v4.5H13c.83 0 1.5.67 1.5 1.5s-.67 1.5-1.5 1.5H5.5V20zM21 4.5h7.5V12c0 .83-.67 1.5-1.5 1.5s-1.5-.67-1.5-1.5V7.5H21c-.83 0-1.5-.67-1.5-1.5s.67-1.5 1.5-1.5zm0 20h4.5V20c0-.83.67-1.5 1.5-1.5s1.5.67 1.5 1.5v7.5H21c-.83 0-1.5-.67-1.5-1.5s.67-1.5 1.5-1.5z"/></symbol><symbol id="icon-instagram" viewBox="0 0 32 32"><path d="M27.938 31.754H4.307a3.934 3.934 0 0 1-3.938-3.938V4.185A3.934 3.934 0 0 1 4.307.247h23.631a3.934 3.934 0 0 1 3.938 3.938v23.631a3.934 3.934 0 0 1-3.938 3.938zM16.123 9.895a6.097 6.097 0 0 0-5.538 3.545c-.012.025-.025.049-.025.062-.062.135-.111.271-.16.406l-.074.185c-.049.135-.086.283-.123.418-.012.062-.025.135-.049.197-.025.148-.049.308-.074.455 0 .062-.025.123-.025.185a6.104 6.104 0 0 0 6.068 6.757 6.103 6.103 0 0 0 6.068-6.757c0-.062-.025-.123-.025-.185-.025-.148-.049-.308-.074-.455-.025-.062-.037-.135-.049-.197-.037-.135-.074-.283-.123-.418l-.074-.185c-.049-.135-.098-.271-.16-.406a.201.201 0 0 0-.025-.062 6.1 6.1 0 0 0-5.538-3.545zm12.209-4.529a1.57 1.57 0 0 0-1.575-1.575h-3.151a1.57 1.57 0 0 0-1.575 1.575v3.151a1.57 1.57 0 0 0 1.575 1.575h3.151a1.57 1.57 0 0 0 1.575-1.575V5.366zm0 8.074h-2.905a9.649 9.649 0 0 1-9.304 12.209A9.649 9.649 0 0 1 6.819 13.44H3.914v13.194a1.57 1.57 0 0 0 1.575 1.575h21.268a1.57 1.57 0 0 0 1.575-1.575V13.44z"/></symbol><symbol id="icon-LINE-GRAPH" viewBox="0 0 32 32"><path d="M29.576 32H1.455C.65 32 0 31.35 0 30.545V2.424C0 1.619.65.969 1.455.969h28.121c.805 0 1.455.65 1.455 1.455v28.121c0 .805-.65 1.455-1.455 1.455zM28.121 3.879H2.909v25.212h25.212V3.879zM5.062 16.718h-.01l3.879-2.424h.01c.213-.136.475-.213.756-.213.301 0 .582.087.815.242h.01l6.429 4.286 7.399-5.236c.242-.175.543-.271.863-.271a1.453 1.453 0 0 1 .854 2.628l-8.242 5.818a1.446 1.446 0 0 1-.853.281 1.46 1.46 0 0 1-.834-.271L9.68 17.262l-3.035 1.901a1.506 1.506 0 0 1-.824.252 1.453 1.453 0 0 1-.757-2.696z"/></symbol><symbol id="icon-MAGNIFYING-GLASS" viewBox="0 0 32 32"><path d="M30.791 26.631c.533.533.853 1.262.853 2.08a2.936 2.936 0 0 1-2.933 2.933 2.99 2.99 0 0 1-2.08-.853l-8.587-8.604a11.69 11.69 0 0 1-5.956 1.636C5.617 23.823.355 18.561.355 12.09.355 5.601 5.617.357 12.088.357A11.721 11.721 0 0 1 23.821 12.09c0 2.169-.604 4.196-1.636 5.956l8.604 8.587zM12.089 3.289c-4.853 0-8.8 3.947-8.8 8.8s3.947 8.8 8.8 8.8c4.853 0 8.8-3.947 8.8-8.8s-3.947-8.8-8.8-8.8z"/></symbol><symbol id="icon-pinterest" viewBox="0 0 26 32"><path d="M12.763 22.277c.665.382 1.465.64 2.437.714.997.074 1.945-.111 2.757-.345a8.28 8.28 0 0 0 2.154-.997c2.486-1.625 4.135-4.468 4.726-7.951.16-.935.382-1.858.382-2.917 0-1.046-.246-1.969-.492-2.818-.48-1.637-1.231-2.942-2.252-4.074a10.801 10.801 0 0 0-3.668-2.646 11.854 11.854 0 0 0-5.329-.997c-.702.037-1.354.074-1.982.16-1.883.271-3.434.849-4.812 1.662C4.899 3.126 3.435 4.603 2.426 6.45a11.36 11.36 0 0 0-1.157 3.175c-.246 1.231-.246 2.708 0 3.988.394 2.092 1.378 3.705 2.978 4.591.209.123.529.308.788.295.615-.012.628-.738.763-1.255.111-.431.369-1.034.148-1.428-.16-.283-.406-.492-.566-.738-.517-.775-.837-1.785-.837-3.077 0-1.674.406-3.028 1.034-4.197 1.182-2.24 3.2-3.865 6.043-4.345 1.575-.271 3.335-.135 4.615.283 1.292.418 2.351 1.169 3.089 2.105.788.985 1.28 2.252 1.391 3.84.062.862 0 1.723-.086 2.474-.258 2.338-.935 4.308-2.055 5.772-.702.911-1.748 1.883-3.262 1.932-.862.025-1.477-.185-1.994-.566a2.631 2.631 0 0 1-1.046-1.575c-.185-.775.037-1.514.234-2.228.394-1.452.825-2.572 1.157-4.074.148-.665.283-1.575.098-2.326-.172-.714-.529-1.218-1.071-1.538-.517-.308-1.366-.431-2.129-.16-1.206.418-1.994 1.575-2.326 2.88a6.63 6.63 0 0 0-.172 2.388c.074.751.258 1.378.529 2.092.037.098-.074.382-.111.554-.603 2.56-1.169 5.046-1.772 7.582-.308 1.329-.652 2.671-.726 4.271-.062 1.403-.185 2.855-.012 4.111.037.234.049.394.209.418.209.049.062.369.775-.443 1.071-1.231 1.871-2.757 2.511-4.332.382-.948.615-2.006.886-3.04.271-1.046.529-2.129.788-3.151.394.702.96 1.157 1.625 1.526z"/></symbol><symbol id="icon-SHOPPING-CART" viewBox="0 0 38 32"><path d="M37.824 7.808l-5.291 11.733a1.751 1.751 0 0 1-1.493 1.045l-15.189 1.003.875 2.517h16.555c1.941 0 3.52 1.579 3.52 3.52s-1.579 3.52-3.52 3.52a3.524 3.524 0 0 1-3.52-3.52H13.334c0 1.941-1.579 3.52-3.52 3.52s-3.52-1.579-3.52-3.52a3.524 3.524 0 0 1 3.52-3.52h3.179L6.209 4.735H2.198c-.981 0-1.771-.768-1.771-1.749s.789-1.771 1.771-1.771h5.269c.768 0 1.408.512 1.664 1.195l1.024 2.923h26.069c.96 0 1.749.789 1.749 1.749 0 .277-.064.512-.149.725zM11.392 8.853l3.243 9.301L29.76 17.13l3.733-8.277H11.392z"/></symbol><symbol id="icon-twitter" viewBox="0 0 38 32"><path d="M24.538.989c-.596.131-1.178.291-1.702.524-2.167.945-3.651 2.691-4.32 5.135-.276.975-.378 2.589-.044 3.593-1.222 0-2.4-.189-3.433-.451-4.029-.989-6.545-2.327-9.338-4.509-.815-.64-1.629-1.367-2.269-2.167-.204-.262-.538-.495-.684-.8-.015 0-.029-.015-.044-.015-.32.596-.625 1.251-.815 1.993-.756 2.909.436 5.353 1.716 6.924.393.48 1.018.785 1.396 1.222h.044c-.291.102-.785-.044-1.047-.087-.596-.116-1.105-.233-1.6-.451a18.143 18.143 0 0 1-.785-.378c-.015 3.215 1.615 5.295 3.593 6.545.655.407 1.556.945 2.502 1.004-.509.422-2.662.233-3.404.145.931 2.415 2.371 4.015 4.844 4.887.64.218 1.411.422 2.269.407-.451.538-1.425.975-2.065 1.353-1.324.771-2.851 1.28-4.582 1.658-.698.145-1.425.116-2.182.247-.829.131-1.702-.073-2.444-.087.218.131.451.276.669.407.684.422 1.396.785 2.167 1.12 1.382.611 2.865 1.062 4.495 1.469 3.287.815 7.942.451 10.807-.451 8-2.487 13.062-8.32 14.967-16.887.335-1.469.378-3.156.349-4.902.393-.32.8-.625 1.193-.945.989-.785 1.905-1.891 2.589-2.967V4.51c-1.295.407-2.662 1.149-4.32 1.164v-.015c.32-.131.582-.393.844-.596 1.164-.902 1.92-2.08 2.473-3.593-.32.175-.64.349-.945.524-.975.495-2.633 1.207-3.913 1.324-1.498-1.367-3.084-2.444-6.036-2.4-.305.029-.625.073-.931.116z"/></symbol></defs></svg>